:SAMPLES-PER-SECOND 30
:FULLY-SPECIFIED
:DEGREES
62
root  -6.89806 39.1996 -8.16984 -168.191 -85.6498 167.879
RightUpLeg  14.3479 -10.8212 -4.06185
RightLeg  12.5085 5.06629 4.11302
RightFoot  -19.2914 -0.151126 -0.303697
RightToes  -5.8209e-011 0 -3.6325e-017
Spine  2.28031 2.53232 10.4303
Spine1  9.60139 4.63694 -6.87111
HEad  -4.53544 13.6123 -7.80323
LeftShoulder1  6.90956 -10.1204 -44.1403
LeftArm  -15.2439 19.5643 -29.9524
LeftForeArm  21.4544 -20.0572 -3.55529
LeftHand  -0.244104 0.0205437 5.32207
RightShoulder  6.10644 9.82329 39.6982
RightArm  3.14823 3.2159 39.418
RightForeArm  1.14549 27.2683 5.81135
RightHand  -0.563647 -0.0320827 -12.2396
LeftUpLeg  -18.4409 7.88295 -5.64019
LeftLeg  4.59311 31.9293 -6.74469
LeftFoot  0.250582 -0.255907 2.49444
LeftToes  1.76439e-010 -1.07097e-011 2.32476e-011
63
root  -8.05877 39.0935 -8.32279 -161.892 -85.7317 161.225
RightUpLeg  15.4401 -13.1457 -5.55652
RightLeg  15.2901 8.22018 3.91082
RightFoot  -18.6613 -0.0203276 1.6293
RightToes  -5.8209e-011 0 -3.6325e-017
Spine  2.31803 2.5512 8.46132
Spine1  9.61607 4.58129 -6.5091
HEad  -5.20755 13.7352 -6.93067
LeftShoulder1  6.95718 -10.1109 -44.4912
LeftArm  -14.9496 20.7372 -29.908
LeftForeArm  21.7123 -18.3278 -3.54059
LeftHand  -0.244104 0.0205437 5.32207
RightShoulder  6.1801 9.88521 40.0188
RightArm  6.2304 3.37518 40.0444
RightForeArm  1.00827 24.4382 5.20643
RightHand  -0.734562 0.98465 -13.498
LeftUpLeg  -18.8218 11.6709 -8.2887
LeftLeg  8.69864 28.264 -3.48836
LeftFoot  0.133337 -1.03353 10.3218
LeftToes  1.76439e-010 -1.07097e-011 2.32476e-011
64
root  -9.2193 39.0763 -8.46223 -148.498 -86.1133 147.248
RightUpLeg  15.432 -15.1987 -7.4861
RightLeg  20.3353 11.1986 4.37775
RightFoot  -16.5699 0.117793 5.1222
RightToes  -5.8209e-011 0 -3.6325e-017
Spine  2.82632 2.4462 6.03188
Spine1  9.37569 4.31527 -5.98318
HEad  -5.77552 13.5006 -6.01566
LeftShoulder1  7.03622 -10.1485 -44.8899
LeftArm  -14.8156 21.4889 -29.8243
LeftForeArm  22.4015 -16.0281 -3.60104
LeftHand  -0.244104 0.0205437 5.32207
RightShoulder  6.31231 9.94731 40.7463
RightArm  8.13433 2.60325 39.8579
RightForeArm  1.68617 21.0401 5.04072
RightHand  -0.724018 0.850631 -13.5522
LeftUpLeg  -19.1116 17.1248 -11.687
LeftLeg  13.0371 21.7369 0.450519
LeftFoot  -1.34306 -1.20185 13.708
LeftToes  1.76439e-010 -1.07097e-011 2.32476e-011
65
root  -10.3306 39.1643 -8.54634 -135.639 -86.1511 133.81
RightUpLeg  12.8784 -13.3818 -8.56129
RightLeg  28.3773 11.279 6.31435
RightFoot  -10.9473 -0.129715 9.82881
RightToes  -5.8209e-011 0 -3.6325e-017
Spine  3.54574 2.53117 4.368
Spine1  9.13629 4.37356 -5.9999
HEad  -6.1067 12.7912 -5.33269
LeftShoulder1  7.0856 -10.2282 -44.9459
LeftArm  -15.0782 21.809 -30.2829
LeftForeArm  23.1029 -13.373 -3.69084
LeftHand  -0.244104 0.0205437 5.32207
RightShoulder  6.42935 10.0308 41.2874
RightArm  6.84041 0.781526 39.1236
RightForeArm  5.2135 17.5768 5.94561
RightHand  -0.594194 0.0450676 -12.7238
LeftUpLeg  -18.108 19.8247 -13.236
LeftLeg  15.3054 18.227 2.48579
LeftFoot  -3.25382 -0.8721 12.5233
LeftToes  1.76439e-010 -1.07097e-011 2.32476e-011
66
root  -11.3666 39.2631 -8.5745 -130.939 -85.5953 128.719
RightUpLeg  7.73538 -10.1492 -9.38596
RightLeg  38.6889 11.1863 9.23304
RightFoot  -1.18343 -1.31508 14.5198
RightToes  -5.8209e-011 0 -3.6325e-017
Spine  4.22582 2.82427 3.29924
Spine1  8.94344 4.69654 -6.48324
HEad  -6.16508 12.2149 -5.30345
LeftShoulder1  7.03455 -10.2046 -44.6873
LeftArm  -15.6883 22.3715 -31.2908
LeftForeArm  23.2524 -11.5805 -3.64283
LeftHand  -0.244104 0.0205437 5.32207
RightShoulder  6.49223 10.1196 41.4296
RightArm  4.90068 -1.52711 38.212
RightForeArm  9.57184 14.4082 6.98948
RightHand  -0.474312 -0.752657 -11.8568
LeftUpLeg  -16.0239 19.0472 -12.7511
LeftLeg  16.1728 19.1849 2.48286
LeftFoot  -5.01912 -0.572056 10.9026
LeftToes  1.76439e-010 -1.07097e-011 2.32476e-011
67
root  -12.3211 39.2791 -8.58855 -126.156 -84.9289 123.657
RightUpLeg  1.57699 -6.71885 -10.2668
RightLeg  48.4745 10.1814 11.7484
RightFoot  8.0638 -2.93489 17.5022
RightToes  -5.8209e-011 0 -3.6325e-017
Spine  4.94433 2.91465 1.7157
Spine1  8.7579 4.59099 -6.69069
HEad  -6.23951 12.2343 -6.05975
LeftShoulder1  6.90403 -10.0003 -44.5131
LeftArm  -16.1852 23.3305 -32.2391
LeftForeArm  22.9763 -11.327 -3.5394
LeftHand  -0.244104 0.0205437 5.32207
RightShoulder  6.50776 10.1163 41.5476
RightArm  3.94494 -3.70019 37.0438
RightForeArm  13.3283 12.0478 7.68022
RightHand  -0.434423 -1.07914 -11.6399
LeftUpLeg  -14.0335 16.2441 -11.9493
LeftLeg  17.0644 22.2526 1.93574
LeftFoot  -6.70968 -0.389769 10.6217
LeftToes  1.76439e-010 -1.07097e-011 2.32476e-011
68
root  -13.2763 39.3627 -8.59666 -112.938 -85.071 110.144
RightUpLeg  -3.83132 -4.81598 -10.8754
RightLeg  55.3463 7.63241 11.261
RightFoot  11.6228 -3.41712 17.1209
RightToes  -5.8209e-011 0 -3.6325e-017
Spine  5.53512 2.42529 0.226602
Spine1  8.64326 3.76639 -6.17859
HEad  -6.67882 12.3835 -7.18433
LeftShoulder1  6.79976 -9.75943 -44.6397
LeftArm  -16.199 23.921 -32.6942
LeftForeArm  22.9749 -11.8822 -3.55141
LeftHand  -0.244104 0.0205437 5.32207
RightShoulder  6.45317 9.92102 41.8174
RightArm  3.42532 -5.8459 35.5599
RightForeArm  15.4674 11.0194 7.84582
RightHand  -0.480579 -0.834988 -12.2041
LeftUpLeg  -11.7716 12.9171 -11.257
LeftLeg  17.1291 24.6627 1.32786
LeftFoot  -7.94174 -0.259175 10.3089
LeftToes  1.76439e-010 -1.07097e-011 2.32476e-011
